<svg width="100" height="86" viewBox="0 0 100 86" fill="none" xmlns="http://www.w3.org/2000/svg">
<path d="M79.0957 45.374C79.5849 46.1578 79.901 47.0333 80.33 47.8502L79.131 47.063L79.0957 45.374Z" fill="white"/>
<path d="M37.2249 60.4649L37.3405 60.4395C37.6632 60.7135 37.9078 61.3669 38.1046 61.7569C37.7322 62.0851 37.3131 62.3391 36.881 62.5794L36.628 62.6365C36.417 62.6792 36.2086 62.74 36.0254 62.621L37.2249 60.4649Z" fill="white"/>
<path d="M62.6738 60.3232L62.7567 60.3617L63.9318 62.6207L63.8674 62.7225L63.3691 62.6541C62.8059 62.4021 62.3809 62.118 61.8965 61.7325L62.6738 60.3232Z" fill="white"/>
<path d="M36.022 57.1421L36.0868 57.1681L37.0267 59.6431C36.5621 59.8668 36.1397 60.112 35.7138 60.4027L34.9492 60.8491L35.4243 58.9393C35.5591 58.3218 35.6706 57.6774 36.022 57.1421Z" fill="white"/>
<path d="M63.954 57.1421L64.1005 57.191C64.4341 58.0037 64.5653 58.8387 64.7672 59.687C64.8385 59.987 64.9988 60.354 64.9488 60.6617C64.7438 60.6868 64.6222 60.5944 64.4367 60.5095C63.9865 60.1634 63.5171 59.875 63.0039 59.633L63.5513 58.2333C63.684 57.8651 63.7764 57.493 63.954 57.1421Z" fill="white"/>
<path d="M49.544 40.0129L48.4782 39.9967C48.4499 39.6834 48.4502 39.4108 48.2738 39.1394C48.1759 38.989 48.1638 38.8606 48.1641 38.6833C48.1649 37.5129 48.3001 36.3327 48.3804 35.1654L48.7081 29.9821L48.8727 27.3591C48.9083 26.7526 48.9227 26.1271 49.0641 25.5339L49.4133 24.4871C49.0059 24.4885 48.7449 24.5188 48.4358 24.2094C48.3569 24.1305 48.3778 23.9917 48.3705 23.882C48.4808 23.7166 48.5469 23.5673 48.7596 23.5209C49.0005 23.4683 49.3107 23.4954 49.5584 23.4932C50.0527 23.4886 50.6909 23.4171 51.1631 23.5797C51.2985 23.7205 51.4198 23.8271 51.469 24.0234C51.3684 24.2442 51.2499 24.3737 51.0138 24.4543C50.845 24.512 50.7022 24.5168 50.5269 24.5009L50.4539 24.5903C50.5455 24.9743 50.7333 25.3283 50.8133 25.7055C50.9049 26.1384 50.8877 26.648 50.9199 27.0928L51.126 30.5269L51.6882 39.0452C51.542 39.2251 51.3808 39.1818 51.3237 39.3987C51.3797 39.6006 51.4105 39.6532 51.3497 39.8593C51.1413 39.9883 51.0833 39.9993 50.8373 40.0129H49.544Z" fill="white"/>
<path d="M79.1064 47.4824C82.0598 49.4474 84.7998 51.807 87.2121 54.4068L89.5435 57.1007C89.8639 57.4465 90.1922 57.7999 90.5397 58.1189C90.7659 58.3267 91.1773 58.5807 91.3345 58.8258C91.4126 58.9477 91.3721 58.9938 91.3331 59.1213C91.0164 59.2698 90.5572 59.2036 90.2049 59.207C89.5687 59.1338 88.8697 59.0153 88.258 58.8253C87.5404 58.6024 86.8719 58.2357 86.1797 57.9478C83.2523 56.7308 80.2722 55.4915 77.6914 53.615L79.127 52.8001L79.1064 47.4824Z" fill="white"/>
<path d="M51.5547 28.7432L55.165 29.8652C54.3772 31.9019 52.5947 34.2067 52.7844 36.4779C52.8678 37.4775 53.3398 37.9766 54.0829 38.5941C53.9704 38.2919 53.8038 38.0427 53.6452 37.7653C53.402 37.3412 53.3047 36.7344 53.454 36.2613C53.6511 35.637 54.1247 35.145 54.699 34.8458C55.0101 34.6838 55.3582 34.5557 55.7043 34.6648L55.7939 34.6951C56.0433 34.7686 56.1954 34.8317 56.3804 35.0205C56.7406 35.3881 56.8056 35.7699 56.8 36.2653C56.7963 36.6032 56.828 36.9117 56.5715 37.1597L56.4443 37.0963L56.2902 36.7827C56.1621 36.5746 56.0849 36.5616 55.8646 36.5059C55.6788 36.5817 55.5858 36.6216 55.4879 36.8045C55.3796 37.0078 55.3649 37.1659 55.4229 37.3836C55.5643 37.5581 55.6814 37.6364 55.9002 37.7C56.2933 37.8143 56.8557 37.6924 57.212 37.4933C58.0687 37.0149 58.3577 34.9612 58.5941 34.0566C58.0993 34.1516 57.5162 34.187 57.0197 34.0917L56.925 34.0719C56.712 34.0295 56.5373 33.9746 56.3521 33.8558C56.004 33.6327 55.7849 33.331 55.7017 32.9301L55.7939 32.8741L55.8889 33.055C56.1304 33.3322 56.4963 33.5875 56.8698 33.6254C57.4011 33.6794 57.9621 33.5075 58.3671 33.16C58.6741 32.8964 58.6532 32.5794 58.6894 32.1997C59.7571 33.2815 61.3488 34.1426 62.6521 34.9233C62.7768 35.4294 62.6733 36.2322 62.6727 36.7694L62.6693 41.1017L58.7177 41.0751L58.7677 39.4993C57.857 39.4684 56.9009 39.4608 55.9941 39.5524C55.8208 39.5697 55.7193 39.6794 55.5496 39.7017C54.5034 39.8403 53.3282 39.8298 52.2865 39.6715L51.5547 28.7432Z" fill="white"/>
<path d="M47.9986 28.8656L48.1445 28.8555L48.2257 28.9363L47.7766 35.7538C47.7079 36.8464 47.7187 37.9616 47.5767 39.0477C47.5507 39.2485 47.519 39.5409 47.3794 39.6871C46.4748 39.8573 45.2451 39.8612 44.3323 39.7221C44.1233 39.6902 44.017 39.5536 43.7628 39.5346C42.878 39.4685 41.9732 39.4987 41.0856 39.5018L41.1283 41.1176L37.0715 41.0805L37.0632 36.0869C37.0644 35.8802 37.001 35.1213 37.0712 34.9793C37.1337 34.8526 37.3667 34.7305 37.4815 34.6589L38.729 33.8748C39.5075 33.369 40.3111 32.8803 40.9462 32.1966L41.0123 32.4709C41.0666 32.7186 41.0929 32.9278 41.2869 33.1097C41.6961 33.4925 42.1564 33.6777 42.7177 33.6424C43.2287 33.6099 43.564 33.3186 43.8796 32.9508L43.952 32.8656L44.0272 32.9937C43.8202 33.4275 43.5736 33.8098 43.098 33.9795L43.0007 34.0114C42.4508 34.1955 41.7617 34.15 41.1942 34.0699L41.0836 34.0538C41.3508 34.9994 41.5465 36.5919 42.2469 37.2853C42.5404 37.5759 43.0022 37.7456 43.4153 37.7422C43.6537 37.7402 44.0543 37.6678 44.2113 37.4623C44.3001 37.3455 44.3617 37.212 44.3263 37.0661C44.2777 36.8651 44.1293 36.6459 43.9568 36.5331C43.8343 36.4528 43.8179 36.4737 43.6749 36.5003C43.4277 36.7392 43.2575 37.0443 43.076 37.3336C42.8127 36.629 42.744 36.0776 43.0765 35.3692C43.2292 35.0435 43.4136 34.8687 43.7464 34.7421C44.2262 34.5594 44.52 34.5967 44.9951 34.8351C45.5128 35.0947 46.0693 35.6475 46.2316 36.2175C46.4929 37.1371 45.9785 37.9418 45.5535 38.7107C45.9794 38.3289 46.4363 37.9523 46.6775 37.4193C46.9937 36.7206 46.958 36.0665 46.8192 35.3339C46.4482 33.3769 45.2524 31.7694 44.5675 29.9305L47.9986 28.8656Z" fill="white"/>
<path d="M22.8598 46.1855L23.0086 46.1988L23.0018 53.1724C20.2739 55.2233 17.1113 56.5769 13.9868 57.8861C13.1457 58.2384 12.3142 58.6736 11.4322 58.9139C10.6057 59.1393 9.67209 59.2334 8.82097 59.1927C8.6912 59.1003 8.58412 59.0723 8.55273 58.91C10.6266 57.2207 12.1456 54.9852 14.0514 53.1223C15.9593 51.2572 17.9715 49.5499 20.1478 48.0054L22.8598 46.1855Z" fill="white"/>
<path d="M19.6725 60.3678C20.2739 58.9676 20.9777 57.6442 21.7692 56.3424C22.1489 55.7175 22.521 55.0677 22.9817 54.499L23.0569 55.6335L30.6913 55.6185C31.8726 55.6168 33.248 55.7435 34.4051 55.5413C34.8256 55.4675 35.2262 55.2006 35.5927 54.991C35.662 55.2582 35.8916 55.8297 35.8636 56.0927C35.8401 56.3093 35.6444 56.6347 35.5446 56.8273L34.7028 58.4278C34.1478 59.4675 33.567 60.5612 33.129 61.6552C32.6008 60.8188 32.6528 59.4584 32.7733 58.5151C31.4561 60.6 29.8271 62.5505 28.1707 64.3766C27.4485 65.1726 26.4911 65.9671 25.893 66.8502C25.2825 67.3527 24.9025 68.1503 24.3474 68.7181C24.2196 68.7263 24.2841 68.7396 24.1591 68.6605L24.0726 67.9827C24.0188 66.961 24.0717 65.9657 24.1551 64.9492C24.1964 64.4487 24.2091 63.9171 24.3174 63.4265C24.7105 61.6434 25.5568 59.8962 26.4724 58.3243C26.9446 57.5141 27.5837 56.7829 27.9773 55.9332C26.8816 57.1695 25.5554 58.2146 24.3573 59.3504C23.5709 60.0961 22.8722 60.9359 22.0641 61.6581C21.2896 62.35 20.4187 62.913 19.5995 63.5466C19.3332 63.7528 18.9244 64.2066 18.6098 64.2697L18.5038 64.1882C18.3805 63.6156 18.6278 63.116 18.8158 62.5855L19.3657 61.0654L19.6725 60.3678Z" fill="white"/>
<path d="M74.1702 66.9017C73.6584 66.2041 72.9806 65.5834 72.3905 64.9489L69.3064 61.3776C68.5859 60.4863 67.8165 59.603 67.3672 58.5375C67.3316 59.2945 67.3751 60.2479 67.1574 60.9698L66.9456 61.6604L65.3205 58.4552C64.8477 57.5113 64.343 56.6874 64.1465 55.6363L71.2068 55.618L73.0697 55.6267C73.4356 55.6273 73.819 55.6536 74.1742 55.5524C75.0748 55.2953 75.9307 54.5553 76.82 54.1914C78.4069 56.3902 79.7158 58.7682 80.7425 61.2781C80.9981 61.9033 81.7497 63.6352 81.4907 64.2502L81.3493 64.2853C80.8548 63.9462 80.4075 63.5492 79.9299 63.1879C79.2213 62.6523 78.4869 62.1555 77.8241 61.5614C77.0833 60.8977 76.4363 60.1179 75.7314 59.4146L73.1805 57.0765L72.0568 55.9621C72.3662 56.6565 72.887 57.2701 73.2838 57.9202C74.2112 59.4398 75.1294 61.1273 75.5727 62.8615C75.7333 63.4896 75.7916 64.147 75.8705 64.7894C75.877 64.896 75.8671 65.2433 75.9132 65.3219L75.9912 66.6158C75.998 66.8952 75.9596 67.1983 76.0045 67.472C75.9231 67.9052 76.0243 68.3099 75.7294 68.6828C75.4545 68.5601 75.297 68.2649 75.1141 68.026C74.8155 67.6352 74.507 67.2602 74.1702 66.9017Z" fill="white"/>
<path d="M57.1729 83.594C56.1405 82.3674 55.176 81.1339 54.4168 79.7147C54.0602 79.0483 53.7967 78.3425 53.5054 77.646C53.2557 77.0485 52.9323 76.3824 52.7849 75.7521C52.7267 75.5038 52.6693 70.975 52.7038 70.9007C52.7224 70.8611 55.5538 68.86 55.9363 68.5452C58.2714 66.6244 60.2058 64.4508 61.8077 61.8887C62.9687 62.9533 64.3902 63.8488 65.8156 64.5076L67.8376 65.3395C67.2096 65.62 66.6772 65.827 65.9787 65.6871L65.8685 65.6639C65.9143 65.7719 65.9445 65.7589 66.046 65.8041C66.9254 66.1949 67.7709 66.5676 68.5776 67.102C69.5518 67.7476 70.4413 68.6411 71.1918 69.5327C72.3452 70.9035 72.7583 72.4918 72.6121 74.2594C70.8703 73.9726 69.2843 72.9089 68.2115 71.5349C67.8026 71.0112 67.4404 70.3699 66.9605 69.9147C66.473 69.4524 65.718 69.1198 65.1302 68.7879C65.3688 69.2162 66.1167 69.6828 66.0981 70.1765L65.9392 70.2367C64.7713 69.9562 63.9098 69.0932 63.1149 68.2365C63.1075 68.3736 63.252 68.6312 63.3126 68.761C64.1792 70.621 65.8897 71.8329 66.9769 73.5307C67.4811 74.3182 67.7466 75.1198 67.9864 76.0136L68.0769 77.0579C68.0721 77.2043 68.0636 77.2335 67.9892 77.3599C67.9185 77.344 67.8396 77.3491 67.7771 77.3124C67.5475 77.1772 67.2772 76.7796 67.0535 76.5859L65.0227 74.9665L64.1331 74.243L63.8733 74.0317C62.7196 73.0078 61.7045 72.1149 60.7926 70.8529C60.7156 70.9937 60.6489 71.143 60.5301 71.2536L60.242 71.3752L60.175 71.3491C59.336 71.0002 58.7004 69.9144 58.0757 69.2719C58.5471 70.1983 59.7721 72.636 59.7183 73.5626C59.5119 73.6842 59.3431 73.5932 59.1175 73.5425L59.0827 73.659L58.8347 73.5423L58.7465 73.5782L58.6226 73.6132L58.5873 73.7198C58.6967 73.8666 58.7371 73.9288 58.764 74.1086L58.8172 74.2322L58.8579 74.3306C58.9014 74.4262 58.9337 74.4661 59.0109 74.5328C58.9995 74.6377 58.9831 74.6665 59.027 74.7655L59.0977 74.9428L59.0052 74.9742C59.2865 75.9585 59.636 76.9999 59.6372 78.032L59.5328 78.1437C59.1853 78.1253 58.9797 78.0832 58.7459 77.8185L56.8748 75.4464L57.2263 77.4204C57.7486 79.7642 58.4563 82.1329 59.3284 84.3713L59.5939 85.2583C59.4686 85.3203 59.3462 85.3788 59.2031 85.3737C58.6766 85.3553 58.2225 84.6852 57.8829 84.3238L57.1729 83.594Z" fill="white"/>
<path d="M27.3682 73.1611C27.4697 72.492 27.5607 71.8386 27.8113 71.2049C28.3994 69.7181 29.7889 68.3111 31.0628 67.3748C32.044 66.6538 33.1846 66.0849 34.3188 65.6455C33.9631 65.678 33.5488 65.762 33.1974 65.7071C32.8606 65.6545 32.5216 65.4846 32.2083 65.3539L32.18 65.3056C34.4461 64.5497 36.3807 63.4376 38.1992 61.9014C39.5678 64.0003 41.0947 65.9228 42.9785 67.5906C43.9266 68.4301 44.9055 69.206 45.9387 69.9375C46.1675 70.0996 47.0608 70.5726 47.1374 70.7652C47.2392 71.0205 47.179 75.7684 47.0947 76.1872C46.9935 76.692 46.7296 77.2012 46.5275 77.6737C45.8225 79.3225 45.0814 80.7341 44.0069 82.1798C43.658 82.649 43.1351 83.0926 42.8408 83.575L41.904 84.5853C41.7261 84.7799 41.5392 85.0445 41.3093 85.1791C41.0848 85.3106 40.8153 85.3709 40.5631 85.4297L40.4582 85.1005L40.6875 84.3919C41.0008 83.6958 41.2234 82.9362 41.4685 82.2132C41.6913 81.5555 41.9673 80.8636 42.0652 80.1742C42.2747 79.6703 42.3881 79.1192 42.5153 78.589L43.1193 75.5292C42.6561 75.9992 42.2498 76.5865 41.844 77.1102C41.509 77.5428 41.2451 77.9534 40.7087 78.155L40.6553 78.1742L40.5775 78.1482C40.3997 78.0501 40.4149 77.916 40.3793 77.7371L40.571 76.66L40.7766 75.7735L40.6575 75.7829C40.6174 75.9268 40.6414 75.8258 40.6154 75.9808C40.5804 76.1915 40.6219 75.9836 40.543 76.1937C40.5009 76.3068 40.4916 76.4168 40.4373 76.5294L40.4014 76.4785C40.2314 76.2424 40.1729 76.2149 39.8969 76.1454C39.7835 76.1168 39.6775 76.0648 39.5712 76.0173V76.1227L39.6198 76.1536C39.7205 76.2209 39.7629 76.2845 39.8189 76.388L40.0838 76.423C39.9433 76.5073 39.6568 76.4573 39.4827 76.4587C39.326 76.239 39.3944 75.8635 39.3944 75.5926L39.4651 75.4865L39.4298 75.3104L39.3597 75.4158C39.3093 75.3663 39.2969 75.3214 39.2706 75.2569C39.0288 75.1144 38.2852 75.2012 37.9806 75.2038C37.9789 75.4896 37.8992 76.1349 38.016 76.3707L37.9424 76.5574L37.9167 76.548C37.9283 76.2282 37.8972 75.9305 37.8568 75.6143C37.8743 75.5004 37.8585 75.5388 37.9091 75.4433L37.9444 75.3805C37.9215 75.346 37.8299 75.1817 37.8039 75.169C37.6453 75.0926 36.9369 75.2009 36.6872 75.1444L36.6344 75.1314C36.4919 74.8944 36.2959 74.6329 36.2755 74.3518C36.2665 74.2251 36.2402 74.101 36.2187 73.9757L35.0495 74.9654C34.1995 75.6265 33.0676 76.321 32.3884 77.1582L32.1189 77.4433C31.9727 77.1546 31.975 76.9535 31.9877 76.6402L32.0819 75.8363C32.2685 75.2134 32.4379 74.5797 32.748 74.0034C33.8766 71.9073 35.9834 70.5509 36.9508 68.3077C36.8467 68.362 36.8747 68.3374 36.8012 68.4078C36.0329 69.1458 35.1072 70.138 33.9866 70.2033L33.8924 70.0786C34.0236 69.6508 34.7396 68.9993 35.05 68.6292C34.4087 69.07 33.5856 69.4028 33.0286 69.9381C32.6157 70.3351 32.3061 70.8919 31.9628 71.3511C30.8682 72.8155 29.5435 73.6223 27.8262 74.1524C27.6942 74.1652 27.5989 74.155 27.4697 74.1256C27.3891 73.8078 27.3823 73.4871 27.3682 73.1611Z" fill="white"/>
<path d="M28.6276 42.6321L31.4078 42.6188C32.5824 42.6225 33.8627 42.5479 34.9406 43.0879C35.0421 43.1388 35.0772 43.1154 35.1872 43.101L35.2344 42.8272C35.4762 42.6553 36.7814 42.7551 37.1369 42.7568L37.1377 46.2945L35.7762 46.2846C35.647 46.2832 35.3563 46.3166 35.2435 46.2789C35.0272 46.2071 34.6658 45.8441 34.4628 45.7038C33.9586 45.3557 33.248 44.8072 32.6734 44.6347C32.2173 44.4978 31.4742 44.5151 31.0127 44.6149C30.7385 44.6743 30.4761 44.8408 30.3378 45.0894C30.2547 45.2387 30.2303 45.3829 30.2705 45.5488C30.6867 45.8364 31.3359 46.1548 31.8452 46.2032C32.5352 46.269 33.3136 46.1172 33.9863 46.2478C34.6296 46.3725 35.3682 46.8781 35.9631 47.1714L37.4824 47.9221C37.5132 47.9374 37.7621 48.0468 37.7739 48.0683C37.8084 48.1302 37.7754 48.5323 37.7756 48.6386C37.7773 49.1419 37.6778 51.8322 37.8384 52.0643C38.2982 52.0796 38.8773 52.1757 39.2667 51.8927C39.4117 51.7872 39.585 51.6416 39.6057 51.4516C39.7007 50.5722 39.619 49.6037 39.6229 48.7158C39.6272 47.6874 39.7459 46.4902 39.5955 45.4799C39.5732 45.3294 39.4968 45.2152 39.3925 45.1066C39.039 44.7384 38.6251 44.8009 38.1551 44.8105C38.0694 44.1772 38.1212 43.464 38.1189 42.8221C39.0732 42.8221 45.3345 42.711 45.6164 42.8979C45.5938 43.6656 46.0643 44.1913 46.4582 44.8137C46.5928 45.0263 46.7557 45.2248 46.8111 45.4759C46.9095 45.921 46.8654 46.4472 46.866 46.903L46.8894 49.8613C46.4848 49.4165 46.1706 48.8131 45.8534 48.2996L45.3933 47.4821C45.4733 48.5939 45.4258 49.7097 45.4544 50.8241C45.4586 50.9856 45.4165 51.4306 45.4745 51.5641C45.5353 51.7038 45.8375 51.9492 45.9535 52.0722L46.8948 52.0847L46.8402 54.07L33.943 54.0748L30.3214 54.0722C29.7395 54.0719 29.0987 54.1305 28.5241 54.0507C27.9419 53.9699 27.2769 53.6461 26.7396 53.4063C26.5227 53.4793 26.6565 53.714 26.4922 53.9085L24.6896 53.9243L24.6816 49.8223L26.1913 49.7849C26.3811 49.783 26.6599 49.7519 26.8338 49.824C26.9802 49.885 27.2138 50.1299 27.3512 50.2357L29.0981 51.5107C29.388 51.7086 29.7072 51.9611 30.0533 52.0451C30.4269 52.1356 31.2144 52.1531 31.5384 51.9464L31.6173 51.891C31.7694 51.7889 31.9597 51.6812 32.0474 51.5124C32.1373 51.3396 32.1492 51.0283 32.0717 50.8501C32.0004 50.6873 31.7932 50.5812 31.6382 50.5051C30.9248 50.1548 30.2532 50.1511 29.4782 50.1359C29.1021 50.1282 28.6644 50.1647 28.3211 49.9962L24.689 48.2015L24.6825 44.4274C26.0635 44.0372 27.2121 42.9661 28.6276 42.6321Z" fill="white"/>
<path d="M54.3912 42.8626C55.0207 42.7034 55.9346 42.8298 56.6028 42.8295L61.8772 42.8188L61.9165 44.8064L60.9282 44.8168C60.825 44.9132 60.4373 45.2065 60.3977 45.3125C60.3409 45.4655 60.3536 45.7751 60.3454 45.9456C60.3095 46.6992 60.2162 51.1423 60.3992 51.5647C60.4551 51.6939 60.7204 51.9145 60.8253 52.0287L62.0505 52.0621C62.4614 52.0669 63.6453 52.1806 63.9281 51.8792C64.0607 51.7375 64.154 51.5715 64.1868 51.3792C64.2852 50.8015 64.2128 50.0983 64.2122 49.5036L64.1987 45.2698C63.7236 44.831 63.4943 44.7877 62.8651 44.8061L62.855 42.8163L70.7645 42.8247L72.5824 42.825C72.9672 42.8222 73.4275 42.7789 73.8016 42.8703C74.1297 42.95 74.5012 43.1672 74.812 43.3097L77.5112 44.6076L77.496 47.049L77.4948 51.9629L74.1251 53.8789C73.9388 53.977 73.7864 54.0474 73.5726 54.0646C72.8261 54.1252 72.0392 54.0768 71.2873 54.076H67.0144L52.9667 54.0587L52.9336 52.0188C53.3122 52.0632 53.8975 52.1772 54.2055 51.9046C54.2974 51.8232 54.54 51.5596 54.5767 51.4482C54.6477 51.2333 54.592 50.8021 54.5926 50.5575L54.5765 47.5121L52.9404 49.8681L52.9534 46.3667C52.9565 46.1492 52.9073 45.6756 52.9723 45.4822C53.2053 44.7897 54.0553 44.2157 54.3183 43.5308C54.3879 43.349 54.3689 43.0608 54.3912 42.8626Z" fill="white"/>
<path d="M49.5444 40.0132H50.8377L50.9045 40.1967C52.3434 40.2216 53.7409 40.3898 55.1929 40.3435C55.5011 40.3336 55.8848 40.3355 56.1825 40.2603C56.3324 40.2221 56.4384 40.1438 56.601 40.1223C57.1434 40.0505 57.7004 40.0652 58.2467 40.0672L58.2083 42.1288L56.3737 42.1056C56.3095 41.9863 56.2708 41.8806 56.236 41.7496C55.9897 41.6295 55.4213 41.6939 55.138 41.6914L52.9039 41.6838C52.5668 41.6872 52.1384 41.6555 51.8203 41.774C51.5401 41.878 51.2726 42.0497 51.0178 42.2046L51.0529 42.2798C51.1929 42.59 51.328 42.9477 51.3668 43.287C51.3883 43.4739 51.3416 43.662 51.3637 43.8495C51.4705 44.7529 51.7711 45.5588 52.4291 46.2029L52.3191 56.4065C52.6729 56.1506 53.1516 55.7423 53.5882 55.649C54.3378 55.4886 55.3487 55.6057 56.1305 55.6057L62.1342 55.6204C61.4609 57.8684 60.5979 59.8531 59.3416 61.8347C58.7065 62.8366 57.9854 63.8469 57.0812 64.6225C56.819 64.5165 56.5507 64.4186 56.3024 64.2823L56.2696 64.1763C56.3601 64.1197 56.3613 64.0946 56.471 64.1087C56.786 64.1494 56.9361 64.1359 57.1892 63.9379C57.4954 63.6979 57.6803 63.0975 57.7058 62.7169C57.7276 62.3932 57.7459 62.0491 57.5121 61.7994C57.1937 61.4595 56.7693 61.3817 56.3372 61.2746C55.8336 61.4165 55.621 61.5095 55.2636 61.9099L55.1971 61.8081C55.3232 61.4185 55.5113 61.2087 55.8698 61.0215C56.4622 60.7121 57.0939 60.8272 57.7211 60.9505C57.4985 60.113 57.3051 58.3578 56.4755 57.9204C56.1079 57.7267 55.6594 57.7273 55.2751 57.8644C55.1948 57.893 55.1493 57.9654 55.0914 58.0262C55.0755 58.2504 55.0738 58.4113 55.1414 58.627L55.2893 58.7628C55.5248 58.7416 55.5585 58.7574 55.7414 58.5923C55.7875 58.4127 55.7765 58.286 55.9351 58.182C56.085 58.2354 56.1104 58.2498 56.1811 58.4048C56.3123 58.6926 56.2674 59.3263 56.1418 59.6161C56.0194 59.8978 55.7884 60.1941 55.4966 60.3129C55.2013 60.4328 54.7557 60.413 54.467 60.286C54.02 60.0895 53.4714 59.5138 53.3269 59.0512C53.179 58.5775 53.2805 58.0468 53.5175 57.6201L53.9433 56.8699C53.386 57.341 52.8258 57.8559 52.7566 58.633C52.7243 58.9926 52.7407 59.3317 52.7987 59.6874L52.8126 59.7787C53.0272 61.123 53.7007 62.2133 54.2289 63.4403C54.4973 64.0635 54.7944 64.7998 54.7693 65.4914C54.7373 66.3734 54.2487 67.2822 53.7641 67.9945L53.6965 68.0239L52.6799 65.8141C52.5369 65.5217 52.4322 65.2183 52.2547 64.9446C52.3217 65.956 52.2309 66.9152 52.2046 67.9229L52.2323 70.6881L52.2159 75.8754C52.1956 76.7115 52.1967 77.5709 52.0864 78.4008C51.9595 79.3571 51.7157 80.2764 51.4298 81.1962C51.0815 82.3159 50.6146 83.4306 49.9094 84.3745C49.4607 83.7464 48.9862 82.9875 48.7769 82.2328L48.432 81.2222C48.1249 80.2379 47.8201 79.2137 47.6928 78.1873C47.5322 76.8911 47.6445 75.4911 47.6493 74.1853L47.5902 67.3574C47.5839 66.3018 47.673 65.1959 47.6131 64.1506C47.5517 64.299 47.4898 64.4472 47.451 64.6035C47.2449 65.4405 46.8109 66.0522 46.4769 66.8272C46.2917 67.2579 46.1761 67.6744 45.953 68.0968C43.6476 64.9403 46.1209 63.2157 46.8046 60.204C46.9243 59.6775 47.0147 59.1694 46.948 58.627C46.851 57.8378 46.4136 57.429 45.8203 56.9573C45.8492 57.0325 45.8797 57.1032 45.9227 57.1719L46.1464 57.5395C46.4043 57.9962 46.499 58.6364 46.3285 59.1448C46.1803 59.587 45.6456 60.0869 45.2254 60.2789C44.9155 60.4206 44.5363 60.4551 44.221 60.3182C43.9547 60.2026 43.552 59.8056 43.4912 59.5067C43.4256 59.1832 43.427 58.4851 43.5995 58.2094L43.7146 58.2201C43.8319 58.4 43.9597 58.5439 44.1093 58.6977C44.2892 58.7452 44.3197 58.7715 44.4831 58.6601C44.6336 58.5578 44.6734 58.4065 44.6972 58.2382C44.6112 57.9956 44.5821 57.9696 44.3771 57.8113C43.9077 57.7615 43.5364 57.6965 43.1214 57.973C42.411 58.4461 42.1803 60.1036 42.0022 60.9084L42.0491 60.9398C42.4379 60.8165 43.0999 60.7766 43.4864 60.8976L43.5642 60.9242L43.7573 60.9853C44.2829 61.1909 44.4614 61.6823 44.6624 62.1656L44.2564 61.727C43.9996 61.4674 43.6595 61.2819 43.2814 61.3045C42.842 61.3311 42.3384 61.5757 42.0768 61.9343C41.9419 62.1192 41.9841 62.5883 42.0101 62.808C42.0624 63.2452 42.3435 63.96 42.8219 64.1008C43.0354 64.1636 43.1895 64.0553 43.3869 64.2116C43.2093 64.4019 42.7984 64.5529 42.5584 64.6742C41.9787 64.1149 41.5034 63.4654 41.0314 62.8156C39.9713 61.3566 39.0261 59.7281 38.3633 58.0491C38.0531 57.263 37.8269 56.4291 37.5645 55.6243L43.973 55.6096C44.6231 55.6125 45.492 55.5019 46.1034 55.6478C46.6138 55.77 47.1075 56.2258 47.5158 56.5425V51.8783L47.44 47.3159C47.4389 47.0577 47.3656 46.527 47.4369 46.2945C47.4739 46.1727 47.6928 45.9408 47.7703 45.8215C47.9747 45.507 48.1611 45.1575 48.279 44.8004C48.4978 44.1376 48.4014 43.4267 48.6087 42.7897L48.8157 42.1766L48.0341 41.7779C47.7177 41.6478 47.2706 41.686 46.9327 41.6872L44.7981 41.7019C44.4696 41.705 43.9213 41.6348 43.6244 41.7559L43.4581 42.1481C42.8889 42.057 42.2343 42.1235 41.6552 42.1266L41.6504 40.0646C42.0748 40.0615 43.2944 39.9685 43.5955 40.2108L43.6702 40.2767C44.8233 40.3593 45.9937 40.3912 47.1491 40.3259C47.4997 40.3058 47.8529 40.2046 48.1944 40.1888C48.4679 40.1763 48.7127 40.2108 48.9907 40.1761L49.0761 40.1647L49.071 40.1257C49.2271 40.076 49.3843 40.0463 49.5444 40.0132Z" fill="white"/>
<path d="M49.891 43.499C50.0213 43.6876 49.977 44.0086 49.9959 44.2345L50.1311 47.0446C50.1455 47.3656 50.0901 47.8686 50.2498 48.1448C50.5374 48.6422 50.4099 52.2373 50.4102 53.0225L50.3994 60.6363C50.387 60.9589 50.3921 61.3191 50.3185 61.6333C50.2866 61.7702 50.1967 61.8796 50.1709 62.0181C50.1019 62.3939 50.1311 62.8379 50.1265 63.2216C50.0686 68.1092 50.325 73.0513 49.9662 77.9256C49.8494 77.5694 49.8579 77.1017 49.8274 76.7256C49.6936 75.0884 49.7403 73.441 49.742 71.7998L49.7326 63.8934L49.7196 62.4762C49.7162 62.2953 49.7431 62.0792 49.6631 61.9132C49.5975 61.7772 49.6243 61.8683 49.5839 61.7594C49.4055 61.2776 49.3198 48.653 49.5698 48.1997C49.8491 47.6938 49.7086 46.5919 49.7332 46.0086L49.891 43.499Z" fill="#020202"/>
<path d="M52.4729 0C52.8063 1.36935 51.9826 2.98393 51.2977 4.12656C51.1034 4.45069 50.888 4.7494 50.6244 5.02072C50.7709 5.16103 50.7978 5.23186 50.8444 5.42926L50.4862 5.78155C50.5834 5.96843 50.7412 6.17618 50.8125 6.36812L50.7867 6.63344C50.9623 6.74103 51.1747 6.71284 51.3763 6.66502C51.7199 6.58356 51.9526 6.27334 52.2769 6.1535C52.5829 6.04039 53.0347 6.07272 53.3625 6.06254C53.8963 6.04594 54.5371 5.52975 54.9573 5.22439L54.0425 6.56798C53.8907 6.77394 53.7241 7.04899 53.5231 7.20722C53.1408 7.50794 52.5212 7.53492 52.2371 7.90588C52.3493 8.12248 52.5286 8.17779 52.7548 8.25436C53.1179 8.37733 53.5366 8.41019 53.8813 8.57745C54.7969 9.02153 55.7015 10.1244 56.1692 11.0192C56.6762 11.9897 57.0817 13.002 57.6876 13.9217C56.9657 13.5272 56.3321 13.0199 55.7281 12.4633L55.123 12.75L55.076 13.2891L55.2607 15.0327C55.2867 15.402 55.2655 15.8629 55.3726 16.2121C55.5434 16.7703 56.1522 17.3912 56.6086 17.7379C57.0921 18.1052 57.6461 18.252 58.2079 18.451L56.6089 18.6C56.9355 19.0069 57.3661 19.5114 57.5307 20.0139C57.6008 20.2276 57.5915 20.5254 57.6082 20.7525C57.6791 21.7187 58.0374 22.097 58.7635 22.6792L58.9007 22.6699C59.0195 22.416 59.0172 21.9799 58.9324 21.7153C58.7438 21.1277 58.3592 20.5277 58.0233 20.0133L58.092 19.8807C58.5639 19.8663 58.9377 20.2087 59.2638 20.5124C60.103 21.2934 60.7237 22.362 60.7613 23.5252L60.7669 23.8702C60.912 23.8906 60.8487 23.9078 60.9442 23.8479C61.6226 23.422 62.3747 23.4531 63.1478 23.4684C62.5515 23.7303 62.0004 23.9853 61.7309 24.6244C61.4063 25.3938 61.6636 26.2285 61.9825 26.9529C62.1256 27.2775 62.4381 27.9878 62.7729 28.1538C63.3698 28.4502 64.3012 28.4072 64.8933 28.1411C65.4475 27.8923 66.0377 27.5142 66.2628 26.9218C66.3631 26.658 66.3911 26.352 66.4335 26.0738L66.5122 26.0382C66.6465 26.2237 66.6343 26.6662 66.6004 26.8927C66.4779 27.7113 65.9687 28.3433 65.3025 28.8025C64.7907 29.1551 63.9905 29.5063 63.3585 29.411L63.2816 29.502C63.5796 29.987 64.0504 30.4239 64.4268 30.8525C65.2383 31.7769 66.1417 33.1373 67.4232 33.4076C67.9446 33.5176 68.9027 33.1885 69.3373 32.8952C69.5516 32.7507 69.7164 32.5859 69.8491 32.365C69.8895 32.0803 69.9384 31.8402 69.7515 31.5979C69.5872 31.3844 69.316 31.1475 69.0378 31.1161C68.8274 31.0923 68.623 31.1424 68.4587 31.2784C68.2848 31.422 68.2571 31.7848 68.2613 31.9909C68.2661 32.2285 68.351 32.4863 68.4121 32.7154C67.6489 32.19 67.1569 31.6208 66.9889 30.6817C66.8854 30.1038 66.9137 29.5204 67.2731 29.0338C67.5013 28.725 67.8072 28.468 68.1655 28.3263L68.2526 28.2912C69.0189 28.0048 70.1372 28.2647 70.8537 28.6074C71.5205 28.9263 72.0329 29.4472 72.2732 30.1538C72.6185 31.1692 72.498 32.0294 72.3422 33.0652C72.8789 32.1682 73.3763 31.2928 73.2004 30.209L73.1823 30.0919C73.0587 29.3078 72.6227 28.5025 72.1751 27.8569C71.4139 26.7592 70.444 25.7831 69.4068 24.9427C67.596 23.4749 65.0811 22.1567 64.213 19.8567C63.6588 18.3885 63.7753 16.9252 63.883 15.4042C64.7265 16.1957 65.6548 16.7901 66.5625 17.4956C67.5652 18.2749 68.4313 19.15 69.2256 20.1386L68.509 18.6029C67.8954 17.0986 67.3862 15.3528 67.2558 13.7323C67.348 13.3458 67.2287 12.9277 67.4475 12.5792C67.8652 14.1386 68.1988 14.8774 69.6525 15.7164C70.8687 16.4182 72.6869 16.9329 73.4393 18.194C73.8225 17.8878 74.2079 17.5685 74.6481 17.3468C75.8519 16.7406 77.3435 16.71 78.6589 16.8625C80.3922 17.0632 82.0458 17.6576 83.773 17.8858C84.3116 17.9568 84.8831 18.0461 85.4252 17.9848C86.664 17.8445 87.7699 17.3709 88.9747 17.1424C89.0013 17.1373 89.0304 17.1155 89.0547 17.1277C89.0887 17.1444 89.102 17.1871 89.1254 17.2165C88.7592 17.6893 88.0071 18.0201 87.4862 18.313L85.2815 19.5776C84.8107 19.8383 84.3043 20.0571 83.8524 20.3467C85.6101 20.3467 87.5388 20.5115 89.1673 21.221C89.6319 21.4235 90.0529 21.7054 90.477 21.9794L90.5062 22.0334C90.1827 22.2353 89.8677 22.4341 89.5066 22.5627L87.8688 23.0632C87.7868 23.0872 87.4319 23.1633 87.3825 23.2105C87.3607 23.2315 87.3663 23.2688 87.3581 23.2979C87.8748 23.4325 88.4428 23.3923 88.9747 23.3938C90.7612 23.3986 92.498 23.2306 94.2596 22.9501C93.7755 23.5481 93.1896 23.9997 92.5933 24.4796C92.0532 24.9142 91.5323 25.3669 90.928 25.7133C89.836 26.339 88.5851 26.5166 87.3514 26.6478C86.8003 26.7061 84.6425 26.6738 84.308 26.908C84.6343 27.2727 85.827 27.4124 86.3034 27.4398C87.6748 27.5185 89.0669 27.3298 90.4332 27.2224C92.7601 27.0394 95.3881 27.1483 97.5877 28.0158C97.886 28.1332 98.2887 28.2157 98.6068 28.1702C98.9467 28.1219 99.7048 27.8267 100 27.9468C99.989 28.4389 99.0739 29.2331 98.7123 29.5781C96.3617 31.8216 93.2637 33.0089 90.0252 32.9317C89.1548 32.9111 88.3096 32.7601 87.4718 32.5305C88.3026 33.1582 89.0578 33.9782 89.6395 34.8418C90.2016 35.6762 90.6204 36.6192 91.0445 37.5297C91.8326 39.2215 92.7406 41.163 93.0134 43.0168C93.0474 43.2481 93.0454 43.478 93.0352 43.711L92.7827 43.8575L92.0908 43.1966C90.9524 42.3229 89.4707 41.7048 88.1994 41.0394L85.7778 39.6346L87.0816 41.1508C86.4926 41.0126 85.9873 40.8361 85.4396 40.5777C84.9315 40.3384 84.4281 40.0314 83.8813 39.8925C84.6736 40.5231 85.6607 40.9594 86.3874 41.644C87.903 43.0717 89.0663 45.0832 89.8272 47.0171L91.2577 51.2011C91.5524 51.9957 92.0031 52.6896 92.3125 53.4664L92.2712 53.5718C91.8001 53.7505 91.0036 53.3499 90.5593 53.1477C89.5049 52.6681 88.5243 52.0622 87.5179 51.4927C84.4123 49.7359 81.3714 47.8832 79.1274 45.042C79.1218 44.7657 79.199 43.6926 79.033 43.5249C78.9394 43.4305 78.7847 43.3818 78.6631 43.3318L78.6086 43.2161C79.1076 42.2776 79.7475 41.3499 79.3867 40.2248C79.1382 39.45 78.6128 38.9653 77.9469 38.5307C78.4621 39.1884 78.9869 39.7042 78.8845 40.6059C78.8076 41.2849 78.3936 41.9779 77.8502 42.3956L77.4221 42.6854C76.3402 42.3673 75.3884 41.4573 74.3071 41.1446C73.9542 41.0428 73.5185 41.0779 73.1532 41.0793L71.2581 41.0799L64.6985 41.0722L64.6914 33.9542L64.6179 33.9276C63.2671 33.4189 61.7066 32.4878 60.7002 31.4599C60.3976 31.1511 60.0965 30.8268 59.9198 30.4273L59.6514 29.6567L51.5004 27.0762L51.2618 25.0954L52.1599 24.0407L51.378 23.0287C50.4381 22.9012 49.434 22.9659 48.4845 22.9657C48.165 23.3021 47.902 23.6279 47.6571 24.0226C47.7549 24.2853 48.0055 24.4957 48.1833 24.7109C48.2574 24.8008 48.3872 24.9246 48.4395 25.0242C48.4969 25.133 48.4599 25.3906 48.4537 25.5071L48.3077 27.1791C47.5395 27.4034 40.3872 29.6706 40.3335 29.7645C40.1978 30.0023 40.1805 30.3147 40.0244 30.5732C39.2273 31.8942 37.7824 32.7273 36.4554 33.4257L35.2977 33.9678L35.3206 41.0832L30.9556 41.0801L29.0896 41.0799C28.6197 41.0816 28.1421 41.0499 27.7049 41.2439C26.7 41.6892 25.7734 42.2994 24.728 42.643C24.0349 42.0545 23.4157 41.4262 23.3518 40.4592C23.3031 39.7246 23.9119 39.0584 24.3519 38.5386C23.755 38.8378 23.1485 39.4675 22.9254 40.1057C22.8807 40.233 22.8612 40.3619 22.8411 40.4945L22.8258 40.591C22.6918 41.549 23.1598 42.514 23.727 43.2529C23.4649 43.3493 23.229 43.3881 23.0464 43.6049C22.9763 43.9889 23.0173 44.4004 23.0345 44.7886C23.0382 44.8768 23.0834 45.1652 23.0577 45.2362C23.0351 45.2981 22.7885 45.4964 22.7232 45.5589C22.1509 46.1057 21.5622 46.5929 20.9118 47.0439L19.7389 47.7548L21.425 44.2426C21.0667 44.5819 20.8346 45.051 20.5329 45.4418C20.0513 46.0653 19.468 46.6334 18.8863 47.1635C17.9562 48.011 16.935 48.7815 15.8942 49.4867C14.6877 50.3045 9.18092 53.6875 7.95649 53.636C7.81378 53.6301 7.79786 53.6044 7.71603 53.5017C7.75644 53.163 7.95862 52.8904 8.12519 52.5991C8.34668 52.2117 8.5535 51.8351 8.71187 51.4163C10.0521 47.8741 10.857 43.7998 14.0325 41.3205C14.4173 41.0199 15.7928 40.3809 15.8893 40.002C15.8431 39.9898 15.7983 39.9607 15.7506 39.9649C15.5574 39.9824 15.0215 40.3472 14.8116 40.4501C14.2134 40.7428 13.5923 41.0233 12.9481 41.1981C13.3608 40.654 13.9281 40.0998 14.2732 39.5244C12.8464 40.561 11.3154 41.2713 9.77422 42.11C9.12593 42.4626 8.41155 42.7889 7.85343 43.2781C7.66163 43.446 7.35978 43.7935 7.10263 43.8088C6.99631 43.6796 6.95921 43.6001 6.95817 43.4282C6.95528 42.9608 7.12799 42.4589 7.24633 42.0113C7.62294 40.5867 8.21585 39.2549 8.81726 37.9152C9.27523 36.8952 9.72657 35.8456 10.349 34.913C10.9462 34.0181 11.6729 33.2984 12.4482 32.5627C12.3071 32.5477 12.1058 32.634 11.9668 32.6699C11.6566 32.7505 11.3574 32.807 11.0398 32.8486C9.09686 33.1028 7.08942 32.8446 5.27065 32.1196C3.68276 31.4865 2.3122 30.5553 1.08703 29.3686C0.684828 28.9789 0.225222 28.537 0 28.0175L0.0898342 27.9075C0.485479 27.9155 0.807689 28.0894 1.18555 28.1764C1.75105 28.3065 2.4855 27.9842 3.02171 27.823C3.56142 27.6607 4.11465 27.5261 4.67014 27.4305C5.68131 27.2563 6.68762 27.1452 7.71397 27.1367C9.06145 27.1257 10.4227 27.2996 11.7678 27.3844C13.2268 27.4763 14.6223 27.5903 15.926 26.7937L14.239 26.7519C12.6352 26.695 10.7599 26.5964 9.31289 25.8408C8.66759 25.5038 8.10172 25.0222 7.53679 24.5681C6.90724 24.0619 6.28371 23.5643 5.73167 22.9716C8.11442 23.3236 10.5643 23.562 12.9665 23.2733C11.7424 22.923 10.5807 22.7126 9.48034 22.0365C11.4713 20.6696 13.8993 20.2972 16.2787 20.356C15.0438 19.8309 13.9087 19.0929 12.7412 18.4349C12.2539 18.1603 11.208 17.6918 10.8909 17.2433L10.8395 17.1656C11.2475 17.061 12.0306 17.402 12.4532 17.5233C13.233 17.7481 14.01 17.9675 14.8277 17.9932C16.5402 18.0475 18.2941 17.4452 19.949 17.0952C21.0854 16.8545 22.2835 16.7457 23.4442 16.8209C24.5057 16.8893 25.7324 17.3429 26.4339 18.1587L26.4956 18.231C27.6625 16.729 29.5551 16.3456 31.0464 15.2843C31.6676 14.8421 32.2006 14.1686 32.3909 13.4198C32.4709 13.105 32.4837 12.748 32.5405 12.4235L32.5722 12.5099C33.2607 14.494 31.723 18.1943 30.858 20.0303C31.462 19.3573 32.0414 18.6973 32.7268 18.1018C33.8268 17.1469 35.0585 16.3297 36.2077 15.4314C36.2136 16.8099 36.338 18.375 35.8771 19.6915C35.1278 21.8318 32.9434 23.1825 31.2214 24.4756C29.4818 25.782 27.442 27.6969 26.8914 29.8651L26.8679 29.9615C26.7868 30.2828 26.7905 30.6094 26.8035 30.9388C26.8301 31.6245 27.2401 32.5268 27.7431 32.9911C27.5375 32.2632 27.4154 31.493 27.561 30.738C27.7117 29.9584 28.2119 29.1712 28.8892 28.7482C29.5865 28.3125 30.7594 28.0348 31.5618 28.2403L31.6535 28.2661C32.1424 28.3973 32.4921 28.6651 32.7803 29.0779C33.1199 29.5648 33.1097 30.2225 32.9881 30.7852C32.7958 31.6748 32.411 32.1773 31.6532 32.6727C31.71 32.3059 31.8217 31.8773 31.6984 31.5167C31.6325 31.3236 31.4948 31.2003 31.3043 31.1279C31.1091 31.0539 30.9126 31.0844 30.7345 31.1856C30.4608 31.3414 30.2264 31.5925 30.1514 31.9039C30.098 32.1247 30.163 32.3492 30.2914 32.5319C30.6129 32.9885 31.3263 33.258 31.8556 33.3604L31.9639 33.3807C32.0734 33.4022 32.1771 33.4243 32.2897 33.4212C33.7422 33.3785 34.8648 31.7362 35.7092 30.7185C36.0852 30.2652 36.4885 29.845 36.9089 29.4336C36.4025 29.4636 35.9077 29.3807 35.4352 29.1904C34.6533 28.8752 33.8927 28.2732 33.5672 27.4797C33.4213 27.124 33.2966 26.4646 33.4561 26.1066L33.5621 26.2361C33.563 26.3419 33.5698 26.4219 33.6051 26.5228C33.8661 27.2645 34.3327 27.7924 35.0531 28.119C35.6984 28.4111 36.6256 28.453 37.272 28.149C37.583 28.0025 37.8972 27.2945 38.0321 26.988C38.3414 26.2836 38.59 25.3663 38.2917 24.6198C38.027 23.9576 37.4906 23.7744 36.8855 23.51L36.9431 23.4842C37.6512 23.3183 38.5314 23.4958 39.1264 23.8903L39.2005 23.9398C39.3317 23.1752 39.3746 22.4553 39.7643 21.7622C40.1014 21.1636 40.6943 20.3699 41.3198 20.0552C41.5828 19.9225 41.8975 19.8485 42.1811 19.7696C41.7668 20.4106 41.065 21.2809 41.0192 22.0665C41.0036 22.332 41.0659 22.6238 41.1063 22.8865C42.9086 21.8564 43.4015 19.6418 45.2672 18.6286C44.9511 18.4649 44.0796 18.4889 43.684 18.4493C45.0164 17.9698 45.973 17.495 46.6867 16.2096L45.4199 16.8842C45.6775 16.3162 45.9198 15.7648 46.0926 15.1633C45.9747 14.8944 45.8607 14.6634 45.6526 14.4496C44.9759 13.7552 42.4675 15.5354 41.915 15.9901L40.504 17.2671C40.4271 17.3378 40.1752 17.6231 40.0903 17.6485C40.0374 17.6647 39.9798 17.6463 39.9243 17.6449C39.8042 17.4752 39.7278 17.3081 39.6806 17.1056C39.5483 16.5404 39.6085 15.9265 39.6653 15.3553C39.7634 14.373 39.8836 13.3956 40.3278 12.497C40.5877 11.9712 41.0014 11.5225 41.3056 11.0208C41.6441 10.4622 41.7762 10.0092 41.6127 9.36687C41.5254 9.02385 42.1469 8.38836 42.2365 7.99424C42.3516 7.48756 42.6239 7.02134 42.8071 6.53523C42.9496 6.1576 43.0206 5.71886 43.1363 5.3269C43.2754 5.87153 43.2969 6.46929 43.3574 7.02883C43.9031 6.15424 44.2212 5.32271 45.1216 4.71898C45.9093 4.19077 48.6776 3.06155 49.5816 3.24815C48.2588 3.90727 46.4836 4.6864 45.7021 5.991C46.7969 5.08719 48.1454 4.40977 49.3647 3.68115C50.4242 3.04787 51.6611 2.31121 52.1918 1.15114C52.2724 0.829407 52.224 0.213544 52.4729 0Z" fill="white"/>
<path d="M44.711 9.35454L44.875 9.30859C45.0071 9.37445 45.0156 9.36563 45.0617 9.50741C45.1253 9.70274 45.1111 9.8478 45.013 10.0289C44.691 10.6236 43.8175 10.8628 43.2268 11.0543L42.8926 11.0777V10.9956L44.711 9.35454Z" fill="#020202"/>
<path d="M70 45L71.3985 45.0742C71.789 45.4373 72.141 45.8067 72.4021 46.2756L72.4068 49.4274C72.4068 49.7616 72.4747 50.3349 72.3861 50.6495C72.3218 50.8788 71.9291 51.2781 71.7746 51.4745C71.6594 51.5927 71.4365 51.8921 71.3027 51.958C71.2634 51.9774 71.072 51.9624 71.0222 51.9635L70.0197 51.9829L70 45Z" fill="#020202"/>
</svg>
