<svg width="800" height="800" viewBox="0 0 800 800" fill="none" xmlns="http://www.w3.org/2000/svg">
<path d="M400 66.667C334.073 66.667 269.626 86.2167 214.81 122.844C159.994 159.471 117.269 211.53 92.0401 272.439C66.8109 333.348 60.2098 400.37 73.0716 465.03C85.9333 529.691 117.68 589.085 164.298 635.703C210.915 682.32 270.31 714.067 334.97 726.929C399.63 739.79 466.652 733.189 527.561 707.96C588.47 682.731 640.529 640.007 677.156 585.19C713.784 530.374 733.333 465.927 733.333 400C733.333 356.226 724.711 312.881 707.96 272.439C691.208 231.997 666.655 195.251 635.702 164.298C604.749 133.345 568.003 108.792 527.561 92.0405C487.119 75.2889 443.774 66.667 400 66.667ZM589.2 341.234L389.2 524.567C382.868 530.373 374.538 533.51 365.949 533.324C357.36 533.138 349.174 529.642 343.1 523.567L243.1 423.567C239.916 420.492 237.377 416.814 235.63 412.747C233.883 408.68 232.963 404.306 232.925 399.88C232.886 395.454 233.73 391.065 235.406 386.969C237.082 382.872 239.557 379.15 242.687 376.02C245.817 372.891 249.538 370.416 253.635 368.74C257.731 367.064 262.121 366.22 266.547 366.259C270.973 366.297 275.347 367.217 279.413 368.964C283.48 370.711 287.158 373.25 290.233 376.434L367.667 453.867L544.133 292.1C550.649 286.124 559.271 282.981 568.104 283.362C576.937 283.744 585.257 287.618 591.233 294.134C597.21 300.649 600.353 309.272 599.971 318.105C599.59 326.938 595.715 335.257 589.2 341.234Z" fill="url(#paint0_linear_549_1586)"/>
<defs>
<linearGradient id="paint0_linear_549_1586" x1="400" y1="66.667" x2="400" y2="733.334" gradientUnits="userSpaceOnUse">
<stop stop-color="#B9874A"/>
<stop offset="1" stop-color="#F5A440"/>
</linearGradient>
</defs>
</svg>
